<?xml version="1.0" standalone="no"?>
<!DOCTYPE svg PUBLIC "-//W3C//DTD SVG 20010904//EN"
 "http://www.w3.org/TR/2001/REC-SVG-20010904/DTD/svg10.dtd">
<svg version="1.0" xmlns="http://www.w3.org/2000/svg"
 width="500.000000pt" height="500.000000pt" viewBox="0 0 500.000000 500.000000"
 preserveAspectRatio="xMidYMid meet">

<g transform="translate(0.000000,500.000000) scale(0.100000,-0.100000)"
fill="#000000" stroke="none">
<path d="M326 3415 c-47 -16 -91 -57 -117 -107 -17 -34 -19 -62 -19 -346 l0
-309 31 -46 c18 -27 51 -59 78 -75 l46 -27 2165 0 2165 0 46 27 c57 33 96 89
108 153 11 59 15 435 5 531 -9 89 -48 149 -123 187 l-55 27 -2145 0 c-1796 -1
-2152 -3 -2185 -15z m273 -150 c38 -19 44 -39 22 -66 -18 -22 -18 -23 2 -39
65 -53 -63 -119 -174 -90 -46 12 -89 44 -89 67 0 18 77 17 96 -2 17 -17 61
-20 84 -5 19 12 12 18 -30 22 -41 5 -57 38 -18 38 28 0 55 16 45 26 -10 11
-81 6 -85 -6 -2 -5 -24 -10 -49 -10 -37 0 -44 3 -41 17 2 10 18 28 37 40 27
18 48 23 103 23 41 0 80 -6 97 -15z m2041 -21 c0 -34 1 -35 22 -20 27 19 86
20 109 3 47 -36 48 -114 2 -144 -34 -22 -87 -22 -113 2 -20 18 -20 18 -20 -23
l0 -42 -45 0 c-45 0 -45 0 -45 34 l0 34 -30 -15 c-90 -45 -176 72 -105 142 26
27 80 34 116 15 17 -10 19 -7 19 20 0 29 2 30 45 30 45 0 45 0 45 -36z m-1714
-37 c50 -59 23 -120 -61 -137 -96 -20 -165 13 -165 80 0 67 38 92 134 87 60
-2 71 -6 92 -30z m344 -52 l0 -85 -45 0 -45 0 0 55 c0 54 0 55 -30 55 -27 0
-30 -3 -30 -31 0 -45 -16 -67 -58 -79 -20 -5 -40 -10 -44 -10 -14 0 -8 51 7
66 9 10 15 34 15 65 l0 49 115 0 115 0 0 -85z m296 52 c48 -56 24 -117 -52
-136 -96 -24 -174 11 -174 78 0 68 37 93 134 88 60 -2 71 -6 92 -30z m299 23
c14 -22 -6 -50 -36 -50 -29 0 -29 -1 -29 -55 l0 -55 -45 0 -45 0 0 55 0 55
-35 0 c-32 0 -35 2 -35 30 l0 30 109 0 c63 0 112 -4 116 -10z m260 -13 c22
-18 27 -34 32 -85 l6 -62 -47 0 c-36 0 -46 4 -46 17 0 14 -2 15 -17 1 -42 -36
-126 -27 -137 15 -7 28 17 64 46 70 17 3 14 5 -10 6 -30 1 -32 3 -22 22 15 27
44 38 112 38 45 1 62 -4 83 -22z m946 8 c53 -28 63 -83 21 -125 -69 -69 -232
-35 -232 48 0 33 24 70 54 82 35 14 125 11 157 -5z m199 5 c0 -7 6 -7 19 0 36
19 90 12 116 -15 71 -70 -15 -187 -105 -142 l-30 15 0 -34 c0 -34 0 -34 -45
-34 l-45 0 0 110 0 110 45 0 c25 0 45 -5 45 -10z m435 -20 c0 -21 -5 -26 -32
-28 -33 -3 -33 -4 -33 -58 l0 -54 -45 0 -45 0 0 55 0 55 -35 0 c-32 0 -35 2
-35 30 l0 31 113 -3 112 -3 0 -25z m254 15 c27 -14 56 -67 44 -79 -4 -3 -42
-6 -85 -6 -52 0 -77 -4 -73 -10 4 -7 33 -8 81 -4 76 7 89 1 59 -29 -41 -41
-145 -46 -194 -10 -52 39 -47 112 9 140 34 17 125 16 159 -2z m201 -40 l0 -55
35 0 35 0 0 56 0 55 43 -3 42 -3 3 -52 c2 -29 7 -53 13 -53 5 0 9 -22 9 -50
l0 -50 -35 0 c-28 0 -35 4 -35 20 0 19 -7 20 -100 20 l-100 0 0 85 0 85 45 0
45 0 0 -55z m470 -30 l0 -85 -45 0 c-41 0 -45 2 -45 25 0 37 -39 31 -53 -7 -5
-14 -18 -18 -51 -18 -39 0 -44 3 -39 18 3 9 11 23 16 30 7 8 4 18 -8 32 -15
17 -16 24 -7 45 16 35 43 44 145 44 l87 1 0 -85z m-1940 -203 c0 -25 -30 -44
-81 -51 -58 -7 -79 -16 -79 -32 0 -5 11 -2 25 7 34 22 103 13 127 -16 40 -49
13 -102 -61 -120 -79 -19 -152 5 -171 56 -12 30 2 100 24 122 27 27 216 57
216 34z m-1540 -127 l0 -85 -40 0 -40 0 0 55 c0 54 0 55 -29 55 -26 0 -30 -4
-36 -40 -8 -45 -32 -67 -80 -72 -25 -2 -31 1 -33 21 -2 15 3 28 12 33 12 7 16
24 16 63 l0 55 115 0 115 0 0 -85z m467 65 c38 -23 50 -59 33 -99 -32 -77
-206 -74 -242 4 -28 61 29 115 122 115 37 0 66 -6 87 -20z m411 -26 l23 -46
22 43 c22 43 23 44 72 44 l50 0 3 -82 3 -83 -46 0 c-44 0 -45 1 -45 33 l-1 32
-15 -27 c-22 -42 -69 -39 -88 5 l-14 32 -1 -37 c-1 -37 -2 -38 -41 -38 l-40 0
0 85 0 85 48 0 c47 0 48 -1 70 -46z m1127 21 c21 -20 25 -34 25 -85 l0 -60
-45 0 c-25 0 -45 4 -45 9 0 5 -19 2 -43 -7 -37 -13 -46 -13 -72 -1 -23 11 -31
22 -33 47 -3 28 1 34 30 47 l33 14 -27 1 c-29 0 -33 7 -20 26 15 23 49 33 110
34 54 0 67 -4 87 -25z m367 7 c-2 -10 3 -10 20 2 60 42 148 2 148 -67 0 -71
-69 -114 -131 -83 -18 9 -33 16 -33 16 -1 0 -1 -15 -1 -32 0 -32 -2 -33 -42
-36 l-43 -3 0 111 0 111 43 -3 c28 -2 41 -7 39 -16z m666 -44 c2 -32 7 -58 12
-58 6 0 10 -18 10 -40 0 -39 -1 -40 -35 -40 -24 0 -35 5 -35 15 0 12 -14 15
-70 15 -51 0 -69 -3 -67 -12 1 -8 -12 -14 -35 -16 l-38 -3 0 40 c0 27 5 43 16
49 11 6 18 27 22 61 l5 52 106 -3 106 -3 3 -57z"/>
<path d="M2486 3174 c-18 -18 -6 -54 19 -54 45 0 62 40 26 60 -25 13 -27 13
-45 -6z"/>
<path d="M2656 3174 c-12 -12 -13 -20 -5 -35 13 -24 47 -22 63 4 9 15 7 21 -8
33 -25 18 -31 18 -50 -2z"/>
<path d="M789 3174 c-19 -23 1 -49 37 -49 23 0 30 5 32 24 6 39 -43 56 -69 25z"/>
<path d="M1429 3174 c-19 -23 1 -49 37 -49 23 0 30 5 32 24 6 39 -43 56 -69
25z"/>
<path d="M2017 3193 c-15 -14 -5 -23 26 -23 30 1 31 1 13 15 -22 17 -29 18
-39 8z"/>
<path d="M2000 3131 c0 -16 19 -23 40 -16 30 10 24 25 -10 25 -16 0 -30 -4
-30 -9z"/>
<path d="M2962 3181 c-8 -4 -12 -19 -10 -32 4 -34 63 -41 73 -9 12 37 -28 63
-63 41z"/>
<path d="M3280 3175 c-20 -25 -8 -50 25 -50 24 0 31 5 33 24 6 37 -34 55 -58
26z"/>
<path d="M3850 3180 c0 -5 14 -10 30 -10 17 0 30 5 30 10 0 6 -13 10 -30 10
-16 0 -30 -4 -30 -10z"/>
<path d="M4492 3181 c-11 -7 -10 -10 3 -15 28 -10 45 -7 45 9 0 16 -27 20 -48
6z"/>
<path d="M2540 2836 c-18 -22 5 -48 39 -44 20 2 26 9 26 28 0 19 -6 26 -26 28
-14 2 -31 -4 -39 -12z"/>
<path d="M1500 2845 c-22 -26 -8 -50 30 -50 25 0 36 5 38 18 5 23 -15 47 -38
47 -10 0 -23 -7 -30 -15z"/>
<path d="M3043 2863 c-24 -9 -13 -23 17 -23 32 0 40 14 14 24 -9 3 -16 6 -17
5 -1 0 -8 -3 -14 -6z"/>
<path d="M3032 2798 c6 -18 22 -20 43 -3 19 14 18 14 -13 15 -22 0 -32 -4 -30
-12z"/>
<path d="M3543 2853 c-16 -6 -17 -49 -2 -58 18 -12 59 4 59 23 0 32 -26 48
-57 35z"/>
<path d="M4050 2848 c0 -7 -3 -23 -6 -35 -6 -20 -3 -23 25 -23 29 0 31 2 31
35 0 31 -3 35 -25 35 -14 0 -25 -6 -25 -12z"/>
</g>
</svg>
